 <svg
                fill="#000000"
                version="1.1"
                xmlns="http://www.w3.org/2000/svg"
                viewBox="0 0 342.674 342.674"
              >
                <g>
                  <path
                    d="M324.314,36.83c0-3.672,0-7.956,1.224-11.628c0.612-3.672,7.344-3.672,7.956,0c0.612,3.672,0.612,7.344,1.224,11.016
      c0,2.448,0,4.284,0,6.732c0,1.224,0,2.448-0.612,3.672c-0.612,0.612-1.224,1.224-1.836,1.836c1.224-0.612,1.224-1.224,0.612,0
      c-1.224,2.448-4.896,2.448-5.508,0v-0.612l0,0c-1.224-1.224-1.224-2.448-1.224-4.284C324.314,41.726,324.314,39.278,324.314,36.83z"
                  />
                  <path
                    d="M334.718,87.014c0-1.836,2.448-1.836,3.06,0c0.612,11.016,3.672,22.032,3.672,33.048c0,6.732-10.404,6.732-10.404,0
      C331.046,109.046,333.494,98.03,334.718,87.014z"
                  />
                  <path
                    d="M330.434,157.394c-0.612-2.448,3.06-4.896,4.896-1.836c2.448,5.508,4.284,11.016,4.896,17.136
      c0.612,5.508,1.836,11.016-0.612,15.912c-1.224,2.447-4.896,2.447-6.12,0c-2.448-3.672-1.836-7.957-1.836-12.24
      C331.658,169.634,331.046,163.514,330.434,157.394z"
                  />
                  <path
                    d="M331.658,241.238c2.448-6.12,4.284-11.628,4.896-17.748c0.612-3.672,6.12-3.672,6.12,0c0,5.508,0,11.016-0.612,15.912
      c-0.612,5.508-1.836,12.852-6.12,16.523c-1.836,1.836-6.12,1.225-6.732-1.836C327.986,249.194,329.822,245.522,331.658,241.238z"
                  />
                  <path
                    d="M294.326,287.138c3.06-2.447,7.956-1.836,11.628-3.06c4.896-1.224,8.568-4.284,10.404-9.18
      c1.224-3.061,6.12-0.612,4.896,1.836c-1.836,6.12-5.508,10.403-10.404,13.464c-4.896,2.448-12.24,5.508-17.136,1.836
      C292.49,290.81,292.49,288.362,294.326,287.138z"
                  />
                  <path
                    d="M233.738,293.87c7.344-6.732,19.584-4.896,28.764-4.284c4.284,0,4.284,6.12,0,6.732c-4.284,0-8.568,0.611-12.852,1.224
      s-9.18,2.448-13.464,1.836C233.738,299.378,231.29,296.318,233.738,293.87z"
                  />
                  <path
                    d="M167.643,292.646c10.404-6.12,25.091-4.284,36.107,0c4.284,1.836,2.448,7.956-1.836,6.731
      c-11.016-2.448-21.42,0-32.436,0.612C165.194,300.603,163.971,294.482,167.643,292.646z"
                  />
                  <path
                    d="M105.83,289.586c9.791-3.06,20.809-1.224,30.6-0.612c4.896,0,4.896,7.345,0,7.345c-9.791,0.611-21.42,2.447-30.6-0.612
      C102.158,295.094,102.158,290.81,105.83,289.586z"
                  />
                  <path
                    d="M47.69,287.138c4.285-4.283,9.793-2.447,15.301-1.836c6.119,0.612,12.24,1.836,18.359,3.672
      c4.285,1.836,3.061,8.568-1.836,7.345c-6.119-1.836-12.24-2.448-18.359-2.448c-4.896,0-9.18,1.224-12.852-2.448
      C46.467,290.81,46.467,288.362,47.69,287.138z"
                  />
                  <path
                    d="M4.85,282.854c14.076-3.673,23.869-15.301,37.332-20.809c4.896-1.836,7.344,5.508,3.672,8.568
      c-9.18,6.12-17.135,14.688-26.928,20.808c3.672,3.061,7.344,6.12,11.629,9.181c4.283,3.06,11.016,4.283,14.076,8.567
      c1.836,2.448,2.447,6.12,0,8.568c-11.629,10.404-34.885-14.688-42.229-22.645C-1.883,290.81-0.047,284.078,4.85,282.854z"
                  />
                </g>
              </svg>